<svg id="svg" version="1.1" xmlns="http://www.w3.org/2000/svg" xmlns:xlink="http://www.w3.org/1999/xlink" width="400" height="400" viewBox="0, 0, 400,400"><g id="svgg"><path id="path0" d="M249.375 9.490 C 242.720 10.933,229.433 15.449,221.250 19.050 C 184.176 35.365,158.249 66.842,150.661 104.750 C 148.224 116.922,147.096 135.671,148.208 145.500 C 150.199 163.089,154.435 176.454,161.754 188.244 C 165.789 194.743,165.815 194.633,160.252 194.428 C 153.319 194.172,145.653 194.965,139.125 196.614 C 133.710 197.981,129.440 199.693,120.375 204.131 C 115.095 206.716,101.530 218.913,96.550 225.553 C 73.509 256.276,81.133 295.222,113.875 314.055 C 118.031 316.446,117.748 316.990,111.250 319.098 C 83.874 327.979,54.521 321.847,20.787 300.200 C 16.780 297.629,15.600 297.050,15.193 297.457 C 14.860 297.790,17.223 317.750,17.921 320.500 C 18.784 323.898,21.073 325.975,30.875 332.254 C 72.276 358.774,118.076 361.580,158.125 340.050 C 181.653 327.402,199.738 309.513,210.491 288.253 C 213.498 282.307,213.616 282.241,215.339 285.525 C 222.203 298.616,227.887 305.870,237.298 313.552 C 255.023 328.019,275.408 333.199,295.480 328.335 C 314.484 323.730,327.738 311.089,335.936 289.750 C 336.596 288.031,337.246 286.632,337.381 286.640 C 338.516 286.708,343.005 295.419,345.876 303.125 C 350.793 316.318,351.760 336.864,348.219 352.875 C 345.444 365.423,343.935 370.259,338.907 382.718 C 336.717 388.146,335.902 390.486,336.125 390.709 C 336.326 390.909,340.563 389.690,349.850 386.757 C 359.514 383.706,360.936 383.145,361.679 382.095 C 363.551 379.449,370.852 362.879,371.522 359.757 C 371.673 359.052,372.070 357.778,372.405 356.925 C 373.829 353.298,376.468 342.920,377.504 336.875 C 378.977 328.274,378.601 299.862,376.905 291.616 C 371.603 265.847,356.206 240.954,334.000 222.251 C 313.800 205.237,293.026 196.760,270.564 196.365 C 264.397 196.257,264.456 196.297,266.437 193.532 C 278.416 176.811,282.542 155.042,278.005 132.500 C 270.485 95.143,234.999 74.815,199.681 87.632 C 195.471 89.160,195.000 89.197,195.000 87.997 C 195.000 86.224,200.136 74.794,202.717 70.823 C 203.271 69.970,204.010 68.676,204.358 67.948 C 205.726 65.085,215.661 54.508,221.750 49.431 C 228.073 44.160,244.770 34.134,249.750 32.619 C 250.506 32.389,251.800 31.886,252.625 31.502 C 255.075 30.359,263.289 27.393,268.250 25.859 C 276.410 23.338,276.403 23.355,270.625 19.601 C 254.573 9.175,253.401 8.617,249.375 9.490 M212.500 111.508 C 224.459 113.055,233.526 121.105,237.730 133.909 C 242.301 147.829,241.632 170.554,236.343 181.063 C 229.080 195.491,215.200 200.215,203.855 192.120 C 198.302 188.157,190.771 174.709,189.622 166.700 C 189.418 165.284,189.090 163.449,188.893 162.623 C 187.611 157.260,186.512 141.413,186.995 135.250 C 188.392 117.394,188.331 117.600,192.800 115.350 C 199.306 112.074,206.311 110.707,212.500 111.508 M218.480 220.465 C 221.432 220.665,221.415 220.473,218.868 224.718 C 217.691 226.680,216.371 229.009,215.935 229.893 C 215.499 230.777,215.008 231.500,214.842 231.500 C 214.418 231.500,213.100 229.771,212.533 228.471 C 212.270 227.868,211.311 226.087,210.402 224.513 C 208.610 221.408,208.447 220.827,209.313 220.634 C 210.833 220.294,214.861 220.220,218.480 220.465 M176.036 225.473 C 181.140 226.789,185.759 230.579,188.586 235.768 C 197.001 251.218,179.861 278.557,149.003 298.901 C 143.183 302.738,142.102 302.821,136.250 299.876 C 122.114 292.763,115.292 277.380,120.131 263.530 C 120.472 262.556,120.750 261.586,120.750 261.374 C 120.750 258.976,128.111 248.868,134.495 242.500 C 148.628 228.404,163.601 222.266,176.036 225.473 M263.850 226.876 C 274.306 228.452,285.155 233.780,298.750 244.017 C 304.567 248.397,317.174 260.557,318.984 263.533 C 319.833 264.930,318.566 270.656,316.506 274.739 C 311.748 284.164,303.979 290.983,295.936 292.793 C 270.661 298.479,232.505 265.020,238.012 242.000 C 240.680 230.847,250.819 224.912,263.850 226.876 " stroke="none" fill="#fc041c" fill-rule="evenodd"></path></g></svg>