<?xml version="1.0" encoding="UTF-8" standalone="no"?>
<!DOCTYPE svg PUBLIC "-//W3C//DTD SVG 1.1//EN" "http://www.w3.org/Graphics/SVG/1.1/DTD/svg11.dtd">
<svg width="100%" height="100%" viewBox="0 0 1096 780" version="1.1" xmlns="http://www.w3.org/2000/svg" xmlns:xlink="http://www.w3.org/1999/xlink" xml:space="preserve" xmlns:serif="http://www.serif.com/" style="fill-rule:evenodd;clip-rule:evenodd;stroke-miterlimit:10;">
    <g>
        <rect x="0" y="0" width="1096" height="780" style="fill:rgb(155,27,31);"/>
        <g>
            <g>
                <g>
                    <path d="M537.9,453L534.7,438.7C532,426.7 516.6,416.7 503.1,407.8C497.5,404.2 492.2,400.7 488,397.2L478,389L490.3,385C502.8,380.9 512.3,366.9 521.5,353.3C525.2,347.8 528.7,342.6 532.5,338.1L540.7,328.1L544.7,340.4C548.8,352.9 562.8,362.4 576.4,371.6C581.9,375.3 587.1,378.8 591.6,382.6L602.9,391.9L588.6,395.1C576.6,397.8 566.6,413.2 557.7,426.7C554.1,432.3 550.6,437.6 547.1,441.8L537.9,453ZM506.1,392.7C507.6,393.7 509.2,394.8 510.9,395.8C522.1,403.1 535.4,411.8 543.1,423C544,421.6 544.9,420.2 545.9,418.7C553.2,407.4 561.9,394.1 573.2,386.4C571.7,385.3 570.1,384.3 568.5,383.2C557.2,375.5 544.7,367.1 536.9,355.9C535.7,357.6 534.5,359.4 533.3,361.2C525.7,372.5 517.3,384.9 506.1,392.7Z" style="fill:rgb(29,29,27);fill-rule:nonzero;"/>
                </g>
            </g>
        </g>
        <g>
            <g>
                <path d="M526.3,475.9C526.2,432.9 478.5,405.6 453.9,376.2C496.8,371.9 522.9,328.9 553.6,303.8C556.8,346.1 601.2,373.7 626,403.5C583,403.6 555.7,451.3 526.3,475.9Z" style="fill:none;fill-rule:nonzero;stroke:rgb(29,29,27);stroke-width:16px;"/>
            </g>
        </g>
        <g>
            <g>
                <path d="M545,403.6C541.5,397.3 532.2,397.2 526.2,394.8C532.2,390.7 532.5,382.2 535,376C538.9,382 547.7,382.4 553.8,384.8C547.4,388.4 547.3,397.6 545,403.6Z" style="fill:none;fill-rule:nonzero;stroke:rgb(29,29,27);stroke-width:13px;"/>
            </g>
        </g>
        <g>
            <g>
                <path d="M500.5,515.8C511.7,450.1 444,400.8 414,350.3C479.2,356.1 528.6,294.6 579.5,263.8C575.2,330.2 634.9,377 666,429.2C601.3,417.1 549.8,486 500.5,515.8Z" style="fill:none;fill-rule:nonzero;stroke:rgb(29,29,27);stroke-width:16px;"/>
            </g>
        </g>
        <g>
            <g>
                <path d="M467.7,553.1C494.6,465.7 410,390.5 376.7,317.5C465.6,335.9 537.3,260.6 612.3,226.5C593.8,315.4 669.2,387.2 703.3,462C615.9,435.2 540.6,519.8 467.7,553.1Z" style="fill:none;fill-rule:nonzero;stroke:rgb(29,29,27);stroke-width:16px;"/>
            </g>
        </g>
        <g>
            <g>
                <path d="M430.3,587.3C477.4,480 376.2,376 342.4,280.1C453.4,315.8 550.4,227 649.6,192.3C613.9,303.3 702.7,400.3 737.4,499.4C628.4,453.5 527.9,553.6 430.3,587.3Z" style="fill:none;fill-rule:nonzero;stroke:rgb(29,29,27);stroke-width:16px;"/>
            </g>
        </g>
        <g>
            <g>
                <path d="M393.7,617.3C425.6,556.5 417.1,494.6 391.2,433.8C364.4,370.8 330.8,309.8 312.5,243.5C442.7,298.3 564.5,196.5 686.4,162.3C632.7,294.1 733.7,412.7 767.6,536.1C707.2,503.8 644.6,512.8 584.1,538.6C520.9,565.5 460,598.8 393.7,617.3Z" style="fill:none;fill-rule:nonzero;stroke:rgb(29,29,27);stroke-width:16px;"/>
            </g>
        </g>
        <g>
            <g>
                <path d="M352,645.4C395,576.6 392.1,505.6 364.7,431.9C336.4,355.9 301.3,281.6 284.4,201.8C355.4,237.8 424.2,236.4 497.9,210.4C574.1,183.6 648.5,150.8 728,134.2C691.7,204.9 693.5,274.3 719.4,347.7C746.3,423.9 778.8,498.4 795.6,577.8C726.8,534.8 655.8,537.7 582.1,565.1C506,593.3 431.8,628.5 352,645.4Z" style="fill:none;fill-rule:nonzero;stroke:rgb(29,29,27);stroke-width:16px;"/>
            </g>
        </g>
        <g>
            <g>
                <path d="M305.3,670.9C330.7,636.2 349.2,596.6 355,553.8C361,509.7 350.8,469.4 337.4,427.7C308.5,337.7 272.7,249 258.8,155C296.9,178.1 338.8,195.1 383.5,199.4C425,203.4 463,194.1 502.4,182.3C592.6,155.2 681.1,122.4 774.7,108.6C752.4,145.3 735.7,185.6 730.8,228.5C725.8,271.7 735,311.1 747.4,352.2C774.6,442.3 807.4,530.9 821.2,624.5C786.6,599.1 746.9,580.5 704.1,574.7C660.1,568.8 619.7,578.9 578,592.3C488,621.2 399.3,657 305.3,670.9Z" style="fill:none;fill-rule:nonzero;stroke:rgb(29,29,27);stroke-width:16px;"/>
            </g>
        </g>
        <g>
            <g>
                <path d="M255.3,694.2C287.4,656.2 313,612 322.8,562.7C332.5,513.9 323,469.3 309.9,422.1C280.8,317.6 245.4,213.7 235.5,104.9C276.2,133.7 321.2,157 370.6,165.9C418.5,174.5 461.9,165.9 508.4,154C613.1,127.1 716.5,95 824.7,85.2C796.9,124.6 774,168 764.5,215.6C754.7,265.1 763.2,309.8 775.6,358C802.5,462.7 834.6,566.1 844.4,674.3C806.4,642.2 762.2,616.5 712.9,606.7C664.1,597 619.5,606.5 572.4,619.6C467.9,648.9 364,684.4 255.3,694.2Z" style="fill:none;fill-rule:nonzero;stroke:rgb(29,29,27);stroke-width:16px;"/>
            </g>
        </g>
        <g>
            <g>
                <path d="M206.3,714.8C244.8,674.5 277.3,627 291.9,572.7C306.3,519.1 297.1,469.5 284.1,416.7C255,297.8 220.4,179.1 215,56.1C258.5,90.9 306.8,121.1 361.5,134.5C414,147.4 462.5,139.3 514.5,127.7C633.3,101 751.3,70.1 873.7,64.8C838.9,108.3 808.7,156.6 795.3,211.3C782.4,263.8 790.5,312.3 802.1,364.2C828.8,483.1 859.7,601.1 865,723.4C825.5,686.1 779.8,654 727,638.9C672,623.2 621.4,632.1 566.9,645.5C448.2,674.7 329.3,709.7 206.3,714.8Z" style="fill:none;fill-rule:nonzero;stroke:rgb(29,29,27);stroke-width:16px;"/>
            </g>
        </g>
        <g>
            <g>
                <path d="M151.9,732.9C197.2,690.5 238.2,640.5 258.3,581C278.1,522.5 269.8,468.2 257.3,409C228.9,274.8 195.9,139.8 196.9,1.6C243.8,43.6 295.3,82.2 356.3,100.8C413,118 465.6,110.8 522.8,100C657.1,74.5 790.7,46 928.1,46.7C887.1,92.5 849.5,142.4 830.3,201.6C811.5,259.8 818.5,313.6 829.7,372.5C855.2,506.7 884,640.5 883.1,777.9C840.8,732.4 790.7,691.6 731.2,671.4C672.7,651.6 618.4,659.9 559.3,672.5C425,700.9 290.2,733.6 151.9,732.9Z" style="fill:none;fill-rule:nonzero;stroke:rgb(29,29,27);stroke-width:16px;"/>
            </g>
        </g>
        <g>
            <g>
                <path d="M97.2,749.3C149.7,705.2 199.1,653.1 225.3,588.7C236.5,561.1 245.5,529.6 244.6,499.6C243.5,466.8 237.1,433.7 231.1,401.5C203.4,251.6 172.9,100.4 180.4,-53C229.5,-4 283.3,42.7 349.2,67.2C410.4,89.9 467.9,83.3 531,73C680.8,48.7 830.4,22.7 982.8,30.2C934.8,78.2 889.1,130.6 864.2,194.6C839.9,257.2 846.1,315.8 856.6,380.6C881,530.6 906.8,680 899.6,832.5C855.6,779.9 803.4,730.7 739,704.3C712.9,693.6 682.7,684.8 654.4,684.8C620.3,684.8 585.2,692.3 551.8,698.5C401.7,726.4 250.7,756.6 97.2,749.3Z" style="fill:none;fill-rule:nonzero;stroke:rgb(29,29,27);stroke-width:16px;"/>
            </g>
        </g>
        <g>
            <g>
                <path d="M39.5,762.9C99.7,717.5 158.1,664 191.2,595C205,566.2 216.9,532.4 216.8,500.2C216.7,464.3 210.5,428 204.9,392.6C178.4,226.2 151.9,58.3 167,-110.7C217.2,-54.6 272.1,0.3 341.8,31.5C370.1,44.2 402.4,55.2 433.6,55.7C469.3,56.2 505.5,50.9 540.7,46.1C706.7,23.6 872.7,1.6 1040.5,16.8C985.6,66 931.6,119.6 900.2,187.4C886.5,216.9 874.6,250.7 874.1,283.4C873.6,319.1 878.9,355.2 883.7,390.5C906.3,556.6 928.1,722.4 913.1,890.3C867.7,830.1 814.3,771.6 745.2,738.6C717.8,725.5 685.5,713.8 654.9,712.9C617.8,711.8 579.4,719.1 542.9,725C376.5,751.4 208.6,777.9 39.5,762.9Z" style="fill:none;fill-rule:nonzero;stroke:rgb(29,29,27);stroke-width:16px;"/>
            </g>
        </g>
        <g>
            <g>
                <path d="M-18.5,774.3C49.5,727.9 117.3,673.7 157.6,600.4C174,570.7 188.9,534.7 189.8,500.5C190.8,461.6 184.7,422 179.4,383.6C154.3,200.6 132.1,15.7 155.6,-168.8C206.6,-105.6 262.2,-42.2 335.2,-4C366.5,12.4 402.4,26.5 438,27.5C475.4,28.5 513.4,23.9 550.5,19.7C733,-0.9 915.4,-18.3 1098.6,5.3C1035.4,56.3 971.9,111.9 933.7,185C918.2,214.5 903.7,249.3 902.3,282.9C900.6,321.9 905.7,361.6 910.1,400.2C930.7,582.7 948,765 924.6,948.3C878.2,880.4 824,812.3 750.6,772.1C720.6,755.7 685.1,741.1 650.7,739.9C612,738.6 572.1,745.1 533.9,750.3C350.9,775.5 166,797.8 -18.5,774.3Z" style="fill:none;fill-rule:nonzero;stroke:rgb(29,29,27);stroke-width:16px;"/>
            </g>
        </g>
        <g>
            <g>
                <path d="M-70.9,784C4.3,737.1 81.1,682.6 128.3,605.8C146.9,575.4 164.9,537.8 166.4,501.8C168.2,460.3 162.1,417.7 157,376.6C132.5,178.3 114.4,-22.3 145.8,-221.1C198.3,-150.2 255.1,-77.5 332.7,-32.8C362.3,-15.7 397.4,0.3 431.7,3.2C473.3,6.7 517,0.8 558.4,-3.2C756.1,-22.8 953.6,-35.7 1151,-4.4C1080,48 1007.3,104.8 962.6,182.5C945.7,211.9 929.2,247.3 926.6,281.5C923.4,323.2 929,366.7 933.1,408.2C952.6,605.9 965.5,803.3 934.3,1000.7C887.3,925.5 832.9,848.6 756,801.4C725.5,782.7 688.2,765.2 652,763.3C610.7,761.1 567.8,767.7 526.9,772.7C328.6,797.3 128,815.4 -70.9,784Z" style="fill:none;fill-rule:nonzero;stroke:rgb(29,29,27);stroke-width:16px;"/>
            </g>
        </g>
        <g>
            <g>
                <path d="M-126.6,791.8C-43.8,744.6 42.8,690.5 97.6,610.3C118.7,579.4 139.5,540.2 142.2,502.4C145.3,458.2 138.8,412.4 134,368.6C110.5,153.9 97.5,-63.3 138,-276.9C191.4,-197.8 248.9,-115 331,-63.2C361.8,-43.8 399,-24.6 435.8,-22.1C479.4,-19.1 523.9,-23.5 567.3,-27.1C781.1,-44.8 994.5,-52.4 1206.6,-12.2C1127.4,41.2 1044.7,98.7 992.8,180.8C973.3,211.7 954.5,248.7 951.7,285.6C948.4,329.1 953.1,373.8 956.7,417.1C974.5,630.9 982.1,844.3 941.9,1056.4C894.9,973.5 840.7,887 760.5,832.1C729.6,810.9 690.5,790.2 652.6,787.5C608.4,784.4 562.6,790.9 518.8,795.7C304.3,819.3 87.1,832.3 -126.6,791.8Z" style="fill:none;fill-rule:nonzero;stroke:rgb(29,29,27);stroke-width:16px;"/>
            </g>
        </g>
        <g>
            <g>
                <path d="M-185.7,797.3C-94.6,750.2 2.1,697.1 65.3,613.9C89,582.7 113.3,542.1 116.9,502.4C121.1,455.4 114.7,406.3 110.2,359.5C88.4,127.6 81.7,-107 132.5,-336C186.1,-248.8 243,-156 328.4,-96.1C359.8,-74.1 398.3,-52 437.1,-48.4C483.5,-44.1 531.2,-48.4 577.5,-51.5C808.4,-67 1038.5,-68.2 1265.8,-17.8C1178.5,35.8 1085.8,92.7 1025.8,178.1C1003.8,209.3 981.7,248.2 978.1,286.8C973.8,333.1 978.1,380.9 981.3,427.2C996.9,658.1 998.1,888.3 947.6,1115.5C900.6,1024.4 847.4,927.7 764.2,864.4C733,840.7 692.5,816.4 652.7,812.8C605.7,808.6 556.6,815.1 509.8,819.5C278,841.4 43.3,848.1 -185.7,797.3Z" style="fill:none;fill-rule:nonzero;stroke:rgb(29,29,27);stroke-width:16px;"/>
            </g>
        </g>
        <g>
            <g>
                <path d="M-241.8,801.8C-152.3,759.7 -59.3,713.9 11.7,643.4C36.8,618.5 58.5,590.3 74.4,558.8C91.2,525.6 95,495.9 94.5,458.9C93.3,371 81,283.5 76.5,195.7C66.6,0.2 80.5,-201.8 128,-392.1C181.3,-297.6 236.7,-196.1 323.8,-128C354.9,-103.7 396.2,-76.3 436.4,-72.7C486.1,-68.2 536.6,-71.5 586.3,-74.3C833.7,-88.2 1080.1,-82.8 1321.9,-22.3C1228.5,30.3 1128.6,85 1060.4,170C1035.5,201.1 1008.9,241.3 1002.7,281.3C995,331.2 1001.1,385.7 1003.9,435.9C1017.8,683.3 1012.5,929.7 952,1171.5C913.6,1090.1 872.6,1007.3 813.1,938.9C770.7,890.1 708.2,837.5 640.6,835.3C554.7,832.5 468.7,845.3 383.1,851C279.7,857.8 176.2,857.1 72.9,849.5C-32.7,841.7 -138.9,827.7 -241.8,801.8Z" style="fill:none;fill-rule:nonzero;stroke:rgb(29,29,27);stroke-width:16px;"/>
            </g>
        </g>
        <g>
            <g>
                <path d="M-297.5,805C-199.9,763.1 -97.5,718.5 -18.2,645.9C8.5,621.5 32,593.5 49.5,561.8C57.3,547.7 66.5,531.6 70.1,515.8C74.3,497.2 72.7,475 72.5,456.1C71.7,363.1 59.4,270.4 56.1,177.4C48.7,-31.2 69.1,-246.3 124.7,-447.9C177.4,-346 231,-235.6 319.4,-159.3C351,-132 393,-102 435.2,-96.3C487.3,-89.2 542.3,-94 594.6,-96.4C858.7,-108.7 1121.4,-96.5 1377.6,-25.5C1275.6,27.1 1165.2,80.7 1088.9,169.1C1061.6,200.7 1031.6,242.6 1025.9,284.9C1018.8,337 1023.6,392 1026.1,444.2C1038.4,708.3 1026.3,971 955.3,1227.2C917.6,1139.5 877.9,1050 818.6,974.3C776.6,920.8 712.7,860.6 641.1,857.5C551.3,853.7 461.1,866.6 371.5,871.5C260,877.6 148.4,874.6 37.3,863.9C-75.3,853.1 -188.4,835.4 -297.5,805Z" style="fill:none;fill-rule:nonzero;stroke:rgb(29,29,27);stroke-width:16px;"/>
            </g>
        </g>
        <g>
            <g>
                <path d="M-353.9,806.4C-249,765.5 -139,723 -51.2,650.6C-21.5,626.1 4.9,597.6 24.8,564.6C33.4,550.3 43.8,533.3 48,517C52.6,498.8 50.9,476.5 50.9,457.8C51.2,358.1 38.4,258.7 36.3,159C31.6,-62.8 59.2,-291.5 123.4,-504.2C170.9,-403.9 217.5,-298.1 292.4,-214.6C317.8,-186.3 346.9,-161.2 379.8,-142C394,-133.7 410.1,-124.1 426.3,-120.4C445.4,-116 467.4,-116.9 486.9,-116.4C582.2,-113.9 677.5,-122.7 772.8,-122.8C995.3,-123.1 1220.9,-91.4 1433.9,-26.9C1343,16.1 1249.2,58.3 1169.6,120.8C1113.2,165.1 1052.6,228.6 1047.4,303.5C1041,395.7 1050.3,488.7 1051.9,581C1053.9,696.1 1047,811 1032.1,925.1C1016.3,1046.2 992,1166.7 956.5,1283.6C919.5,1188.9 881.3,1091.9 821.9,1008.5C781.2,951.4 716.9,883.5 642.3,879.6C546,874.6 449.3,888.1 353.2,892C234.3,896.8 115.5,891.1 -2.6,876.9C-120.9,862.8 -239.6,841.2 -353.9,806.4Z" style="fill:none;fill-rule:nonzero;stroke:rgb(29,29,27);stroke-width:16px;"/>
            </g>
        </g>
        <g>
            <g>
                <path d="M-411.6,806C-298.1,765.9 -178.3,725.7 -81.4,652C-50.1,628.2 -21.7,600.2 -0.1,567.2C9.3,552.6 21,535 25.6,518.1C30.8,498.9 28.9,474.7 29.1,454.9C29.9,351.7 17.6,248.8 16.6,145.5C14.3,-91.5 49.3,-336.5 123.9,-562C170.5,-453.8 215.2,-339.5 290.6,-247.4C315.5,-217.1 344.1,-189.8 377.3,-168.7C393.3,-158.6 411.4,-147 430.1,-143.4C449.6,-139.7 470.8,-139.7 490.6,-139.1C591.7,-135.7 692.9,-144.3 794.1,-142.9C1029.6,-139.5 1267.9,-100.1 1491.7,-26.5C1393.1,16 1291,56.8 1203.3,120C1144.2,162.6 1077,226 1070.8,302.6C1062.9,400 1072.2,498.4 1072.7,596C1073.4,719 1063.6,841.5 1045.1,963.1C1025.5,1091.1 996.9,1218.3 956.2,1341.4C920.2,1239.4 883.9,1134.6 824.7,1043.3C784.1,980.4 719.5,906 639.5,901.6C539.9,896.2 439.7,909.4 340.1,912.3C213.9,916 88,907.6 -37,890C-163.6,872.3 -290,846 -411.6,806Z" style="fill:none;fill-rule:nonzero;stroke:rgb(29,29,27);stroke-width:16px;"/>
            </g>
        </g>
        <g>
            <g>
                <g>
                    <path d="M-466.8,817C-342.2,776.5 -212.8,738.5 -106.3,662.5C-73.3,638.9 -42.8,610.8 -20.1,577.8C4.2,542.4 11.5,503.8 11.9,460.6C12.8,353.4 -2.7,244.7 -4.8,137.1C-9.6,-118 30.8,-374.6 112.9,-617.2C165.5,-485.4 211.6,-344.8 309.5,-239.4C341.6,-204.8 383,-167.7 431.4,-160.9C490.8,-152.5 551.4,-157.2 611.5,-159.7C927.9,-172.9 1245.4,-139.6 1547,-37.4C1415.1,15.2 1274.5,61.3 1169.1,159.1C1134.5,191.2 1097.4,232.6 1090.6,281C1082.2,340.3 1086.9,401 1089.4,461.1C1102.7,777.6 1069.5,1095.1 967.3,1396.7C931.2,1285.6 896.1,1173 836.4,1072.4C796.6,1005.3 732.7,922.8 647,918.9C543,914.2 438.8,929.1 335.2,933.2C201.8,938.6 67.4,929.8 -64.8,910.7C-201,891 -336,861.3 -466.8,817Z" style="fill:none;fill-rule:nonzero;stroke:rgb(29,29,27);stroke-width:16px;"/>
                </g>
            </g>
        </g>
    </g>
</svg>
